# Blender v3.1.2 OBJ File: ''
# www.blender.org
mtllib Heart.mtl
o 立方体
v -0.000000 -0.647326 0.000000
v 0.786408 0.700618 0.351281
v 0.727792 0.093073 0.260300
v 0.786408 0.700618 -0.351281
v 1.058503 0.975468 0.000000
v 0.514141 0.844935 0.421006
v 0.000000 0.478852 -0.447448
v 0.658610 1.154175 0.000000
v 0.000000 0.478852 0.447448
v -0.000000 0.926862 0.000000
v 0.514141 0.844935 -0.421006
v 0.274239 0.637520 0.460802
v 1.110710 0.383548 0.000000
v 0.246496 1.009648 0.000000
v 0.274239 0.637520 -0.460802
v 0.727792 0.093073 -0.260300
v -0.786408 0.700618 0.351281
v -0.727792 0.093073 0.260300
v -0.786408 0.700618 -0.351281
v -1.058503 0.975468 0.000000
v -0.514141 0.844935 0.421006
v -0.658610 1.154175 0.000000
v -0.514141 0.844935 -0.421006
v -0.274239 0.637520 0.460802
v -1.110710 0.383548 0.000000
v -0.246496 1.009648 0.000000
v -0.274239 0.637520 -0.460802
v -0.727792 0.093073 -0.260300
v 0.627332 0.763611 -0.418869
v 0.790820 0.462695 -0.335073
v 0.141829 0.530722 -0.451705
v 0.949362 0.868095 0.219476
v 0.482670 -0.334873 0.161074
v 0.107739 0.948341 0.000000
v 1.149739 0.692883 0.000000
v 0.949362 0.868095 -0.219476
v 0.878867 1.125488 0.000000
v 0.395805 0.744617 0.460513
v 0.790820 0.462695 0.335073
v 0.141829 0.530722 0.451705
v 0.590993 1.031320 -0.270943
v 0.000000 0.828544 -0.300106
v 0.000000 0.828544 0.300106
v 0.590993 1.031320 0.270943
v 0.627332 0.763611 0.418869
v 0.436972 1.096238 0.000000
v 0.395805 0.744617 -0.460513
v 0.482670 -0.334873 -0.161074
v 0.000000 -0.128964 0.335488
v 0.000000 -0.128964 -0.335488
v 0.456048 0.291315 0.417639
v 0.233264 0.907123 0.294034
v 0.233264 0.907123 -0.294034
v 0.990735 0.202494 -0.107298
v 0.990735 0.202494 0.107298
v 0.456048 0.291315 -0.417639
v -0.627332 0.763611 -0.418869
v -0.790820 0.462695 -0.335073
v -0.141829 0.530722 -0.451705
v -0.949362 0.868095 0.219476
v -0.482670 -0.334873 0.161074
v -0.107739 0.948341 -0.000000
v -1.149738 0.692883 -0.000000
v -0.949362 0.868095 -0.219476
v -0.878867 1.125488 0.000000
v -0.395805 0.744617 0.460513
v -0.790820 0.462695 0.335073
v -0.141829 0.530722 0.451705
v -0.590993 1.031320 -0.270943
v -0.590993 1.031320 0.270943
v -0.627332 0.763611 0.418869
v -0.436972 1.096238 0.000000
v -0.395805 0.744617 -0.460513
v -0.482670 -0.334873 -0.161074
v -0.456048 0.291315 0.417639
v -0.233264 0.907123 0.294034
v -0.233264 0.907123 -0.294034
v -0.990735 0.202494 -0.107298
v -0.990735 0.202494 0.107298
v -0.456048 0.291315 -0.417639
v 0.543691 0.535683 -0.456940
v 1.036085 0.587710 0.176357
v 0.266981 0.020127 0.366284
v 0.781771 1.002374 -0.254064
v 1.036085 0.587710 -0.176357
v 0.105371 0.850700 -0.298308
v 0.105371 0.850700 0.298308
v 0.543691 0.535683 0.456940
v 0.781771 1.002374 0.254064
v 0.399552 0.979863 0.286485
v 0.399552 0.979863 -0.286485
v 0.780001 -0.185428 -0.000000
v 0.266981 0.020127 -0.366284
v -0.543691 0.535683 -0.456940
v -1.036085 0.587710 0.176357
v -0.266981 0.020127 0.366284
v -0.781771 1.002374 -0.254064
v -1.036085 0.587710 -0.176357
v -0.105371 0.850700 -0.298308
v -0.105371 0.850700 0.298308
v -0.543691 0.535683 0.456940
v -0.781771 1.002374 0.254064
v -0.399552 0.979863 0.286485
v -0.399552 0.979863 -0.286485
v -0.780001 -0.185428 0.000000
v -0.266981 0.020127 -0.366284
vt 0.144158 0.447933
vt 0.175425 0.380093
vt 0.226903 0.399364
vt 0.220739 0.460281
vt 0.249403 0.334481
vt 0.273428 0.363009
vt 0.299215 0.391296
vt 0.281168 0.418742
vt 0.272704 0.457892
vt 0.591266 0.096050
vt 0.605809 0.035235
vt 0.698813 0.024904
vt 0.681091 0.081383
vt 0.499908 0.632668
vt 0.481964 0.578505
vt 0.490601 0.520030
vt 0.526926 0.562805
vt 0.710776 0.000000
vt 0.775517 0.022719
vt 0.766016 0.046071
vt 0.736715 0.083035
vt 0.403732 0.270361
vt 0.486396 0.154303
vt 0.581845 0.204772
vt 0.545569 0.268413
vt 0.647508 0.159922
vt 0.729794 0.204022
vt 0.704700 0.235411
vt 0.692524 0.269177
vt 0.348461 0.456588
vt 0.321261 0.497690
vt 0.353537 0.410674
vt 0.403732 0.429685
vt 0.397303 0.482424
vt 0.363682 0.526037
vt 0.262031 0.520281
vt 0.181477 0.512157
vt 0.300352 0.549167
vt 0.449126 0.625167
vt 0.443460 0.550476
vt 0.226229 0.303481
vt 0.310769 0.295206
vt 0.323772 0.325536
vt 0.214961 0.269909
vt 0.305654 0.270123
vt 0.805479 0.304742
vt 0.804140 0.279033
vt 0.858979 0.280371
vt 0.860068 0.306623
vt 0.804610 0.337308
vt 0.858119 0.342011
vt 0.933978 0.298232
vt 0.931269 0.330892
vt 0.933414 0.272484
vt 1.000000 0.254471
vt 1.000000 0.290090
vt 0.995286 0.326025
vt 0.706197 0.139349
vt 0.755796 0.120518
vt 0.774575 0.147805
vt 0.754310 0.175326
vt 0.885873 0.530667
vt 0.865535 0.495615
vt 0.929614 0.464317
vt 0.940572 0.497663
vt 0.856072 0.445353
vt 0.924644 0.420790
vt 0.973236 0.392401
vt 0.984275 0.415131
vt 0.799160 0.086177
vt 0.855200 0.390703
vt 0.927380 0.373350
vt 0.988195 0.359537
vt 0.340705 0.365000
vt 0.803973 0.379601
vt 0.807932 0.426702
vt 0.526926 0.700219
vt 0.486791 0.809499
vt 0.459703 0.729211
vt 0.429039 0.936799
vt 0.410558 0.798238
vt 0.403732 0.682022
vt 0.000000 0.280945
vt 0.088108 0.274218
vt 0.118945 0.336880
vt 0.056551 0.392686
vt 0.144158 0.100307
vt 0.220739 0.082549
vt 0.226903 0.139673
vt 0.175425 0.162264
vt 0.272704 0.082267
vt 0.281168 0.119100
vt 0.299215 0.145719
vt 0.273428 0.173954
vt 0.249403 0.203492
vt 0.591266 0.443848
vt 0.681091 0.459301
vt 0.698813 0.520030
vt 0.605809 0.508689
vt 0.736715 0.458845
vt 0.766016 0.499753
vt 0.899697 0.019772
vt 0.883641 0.052775
vt 0.822396 0.034634
vt 0.847824 0.000000
vt 0.613930 0.831595
vt 0.629379 0.904890
vt 0.586656 0.941276
vt 0.587520 0.882173
vt 0.581845 0.332357
vt 0.486396 0.384962
vt 0.704700 0.303189
vt 0.729794 0.335075
vt 0.647508 0.377858
vt 0.321261 0.044232
vt 0.348461 0.083179
vt 0.363682 0.020448
vt 0.397303 0.062637
vt 0.403732 0.115103
vt 0.353537 0.128389
vt 0.181477 0.038937
vt 0.262031 0.025399
vt 0.562602 0.830844
vt 0.545016 0.903656
vt 0.300352 0.000000
vt 0.323772 0.214119
vt 0.310769 0.244876
vt 0.226229 0.235737
vt 0.371342 0.214211
vt 0.357603 0.247641
vt 0.799160 0.255363
vt 0.853607 0.256134
vt 0.843337 0.226498
vt 0.917281 0.221581
vt 0.927659 0.248853
vt 0.978840 0.197512
vt 0.991495 0.223626
vt 0.767455 0.297179
vt 0.762502 0.271910
vt 0.706197 0.399169
vt 0.754310 0.364474
vt 0.774575 0.393503
vt 0.755796 0.420308
vt 0.882733 0.097965
vt 0.812831 0.083763
vt 0.799160 0.459771
vt 0.946655 0.121152
vt 0.942404 0.151466
vt 0.889203 0.143840
vt 0.816576 0.136717
vt 0.903419 0.186113
vt 0.828996 0.185930
vt 0.964459 0.174056
vt 0.340705 0.174156
vt 0.390748 0.168310
vt 0.509553 0.458237
vt 0.589749 0.729849
vt 0.526926 0.767438
vt 0.552327 0.653825
vt 0.629379 0.654953
vt 0.592818 0.520030
vt 0.056551 0.162141
vt 0.118945 0.209358
vn 0.3521 -0.2538 -0.9009
vn -0.0224 -0.0971 -0.9950
vn 0.1652 0.1294 -0.9777
vn 0.4148 -0.0279 -0.9095
vn 0.5841 -0.2321 0.7778
vn 0.8333 -0.1540 0.5309
vn 0.7996 0.2097 0.5627
vn 0.5761 0.0077 0.8173
vn 0.0931 -0.5074 0.8567
vn 0.2626 -0.3562 0.8967
vn -0.0081 -0.1512 0.9885
vn 0.0009 -0.1737 0.9848
vn 0.4373 0.2819 -0.8540
vn 0.2318 0.4944 -0.8378
vn 0.1419 0.8785 -0.4561
vn 0.5623 0.6203 -0.5468
vn 0.5841 -0.2321 -0.7778
vn 0.5761 0.0077 -0.8173
vn 0.7996 0.2097 -0.5627
vn 0.8333 -0.1540 -0.5309
vn -0.2845 0.4284 -0.8576
vn -0.1289 0.4004 -0.9072
vn -0.1886 0.9335 -0.3049
vn -0.3831 0.8781 -0.2866
vn -0.3831 0.8781 0.2866
vn -0.1886 0.9335 0.3049
vn -0.1289 0.4004 0.9072
vn -0.2845 0.4284 0.8576
vn 0.3521 -0.2538 0.9009
vn 0.4148 -0.0279 0.9095
vn 0.1652 0.1294 0.9777
vn -0.0224 -0.0971 0.9950
vn 0.5623 0.6203 0.5468
vn 0.1419 0.8785 0.4561
vn 0.2318 0.4944 0.8378
vn 0.4373 0.2819 0.8540
vn -0.2278 0.9096 0.3474
vn -0.3842 0.8744 0.2962
vn -0.3018 0.5180 0.8003
vn -0.1681 0.6208 0.7658
vn -0.1681 0.6208 -0.7658
vn -0.3018 0.5180 -0.8003
vn -0.3842 0.8744 -0.2962
vn -0.2278 0.9096 -0.3474
vn 0.5875 -0.4911 0.6432
vn 0.5095 -0.8604 -0.0000
vn 0.5875 -0.4911 -0.6432
vn 0.8646 -0.5025 0.0000
vn 0.0931 -0.5074 -0.8567
vn 0.0009 -0.1737 -0.9848
vn -0.0081 -0.1512 -0.9885
vn 0.2626 -0.3562 -0.8967
vn -0.3521 -0.2538 -0.9009
vn -0.4148 -0.0279 -0.9095
vn -0.1652 0.1294 -0.9777
vn 0.0224 -0.0971 -0.9950
vn -0.5841 -0.2321 0.7778
vn -0.5761 0.0077 0.8173
vn -0.7996 0.2097 0.5627
vn -0.8333 -0.1540 0.5309
vn -0.0931 -0.5074 0.8567
vn -0.0009 -0.1737 0.9848
vn 0.0081 -0.1512 0.9885
vn -0.2626 -0.3562 0.8967
vn -0.4373 0.2819 -0.8540
vn -0.5623 0.6203 -0.5468
vn -0.1419 0.8785 -0.4561
vn -0.2318 0.4944 -0.8378
vn -0.5841 -0.2321 -0.7778
vn -0.8333 -0.1540 -0.5309
vn -0.7996 0.2097 -0.5627
vn -0.5761 0.0077 -0.8173
vn 0.2845 0.4284 -0.8576
vn 0.3831 0.8781 -0.2866
vn 0.1886 0.9335 -0.3049
vn 0.1289 0.4004 -0.9072
vn 0.3831 0.8781 0.2866
vn 0.2845 0.4284 0.8576
vn 0.1289 0.4004 0.9072
vn 0.1886 0.9335 0.3049
vn -0.3521 -0.2538 0.9009
vn 0.0224 -0.0971 0.9950
vn -0.1652 0.1294 0.9777
vn -0.4148 -0.0279 0.9095
vn -0.5623 0.6203 0.5468
vn -0.4373 0.2819 0.8540
vn -0.2318 0.4944 0.8378
vn -0.1419 0.8785 0.4561
vn 0.2278 0.9096 0.3474
vn 0.1681 0.6208 0.7658
vn 0.3018 0.5180 0.8003
vn 0.3842 0.8744 0.2962
vn 0.1681 0.6208 -0.7658
vn 0.2278 0.9096 -0.3474
vn 0.3842 0.8744 -0.2962
vn 0.3018 0.5180 -0.8003
vn -0.5875 -0.4911 0.6432
vn -0.8646 -0.5025 0.0000
vn -0.5875 -0.4911 -0.6432
vn -0.5095 -0.8604 -0.0000
vn -0.0931 -0.5074 -0.8567
vn -0.2626 -0.3562 -0.8967
vn 0.0081 -0.1512 -0.9885
vn -0.0009 -0.1737 -0.9848
usemtl マテリアル
s off
f 16/1/1 56/2/1 81/3/1 30/4/1
f 56/2/2 15/5/2 47/6/2 81/3/2
f 81/3/3 47/6/3 11/7/3 29/8/3
f 30/4/4 81/3/4 29/8/4 4/9/4
f 3/10/5 55/11/5 82/12/5 39/13/5
f 55/14/6 13/15/6 35/16/6 82/17/6
f 82/12/7 35/18/7 5/19/7 32/20/7
f 39/13/8 82/12/8 32/20/8 2/21/8
f 1/22/9 33/23/9 83/24/9 49/25/9
f 33/23/10 3/10/10 51/26/10 83/24/10
f 83/24/11 51/26/11 12/27/11 40/28/11
f 49/25/12 83/24/12 40/28/12 9/29/12
f 4/9/13 29/8/13 84/30/13 36/31/13
f 29/8/14 11/7/14 41/32/14 84/30/14
f 84/30/15 41/32/15 8/33/15 37/34/15
f 36/31/16 84/30/16 37/34/16 5/35/16
f 16/1/17 30/4/17 85/36/17 54/37/17
f 30/4/18 4/9/18 36/31/18 85/36/18
f 85/36/19 36/31/19 5/35/19 35/38/19
f 54/39/20 85/40/20 35/16/20 13/15/20
f 15/5/21 31/41/21 86/42/21 53/43/21
f 31/41/22 7/44/22 42/45/22 86/42/22
f 86/46/23 42/47/23 10/48/23 34/49/23
f 53/50/24 86/46/24 34/49/24 14/51/24
f 14/51/25 34/49/25 87/52/25 52/53/25
f 34/49/26 10/48/26 43/54/26 87/52/26
f 87/52/27 43/54/27 9/55/27 40/56/27
f 52/53/28 87/52/28 40/56/28 12/57/28
f 3/10/29 39/13/29 88/58/29 51/26/29
f 39/13/30 2/21/30 45/59/30 88/58/30
f 88/58/31 45/59/31 6/60/31 38/61/31
f 51/26/32 88/58/32 38/61/32 12/27/32
f 5/62/33 37/63/33 89/64/33 32/65/33
f 37/63/34 8/66/34 44/67/34 89/64/34
f 89/64/35 44/67/35 6/68/35 45/69/35
f 32/20/36 89/70/36 45/59/36 2/21/36
f 8/66/37 46/71/37 90/72/37 44/67/37
f 46/71/38 14/51/38 52/53/38 90/72/38
f 90/72/39 52/53/39 12/57/39 38/73/39
f 44/67/40 90/72/40 38/73/40 6/68/40
f 11/7/41 47/6/41 91/74/41 41/32/41
f 47/6/42 15/5/42 53/43/42 91/74/42
f 91/75/43 53/50/43 14/51/43 46/71/43
f 41/76/44 91/75/44 46/71/44 8/66/44
f 3/77/45 33/78/45 92/79/45 55/14/45
f 33/78/46 1/80/46 48/81/46 92/79/46
f 92/79/47 48/81/47 16/82/47 54/39/47
f 55/14/48 92/79/48 54/39/48 13/15/48
f 1/83/49 50/84/49 93/85/49 48/86/49
f 50/84/50 7/44/50 31/41/50 93/85/50
f 93/85/51 31/41/51 15/5/51 56/2/51
f 48/86/52 93/85/52 56/2/52 16/1/52
f 28/87/53 58/88/53 94/89/53 80/90/53
f 58/88/54 19/91/54 57/92/54 94/89/54
f 94/89/55 57/92/55 23/93/55 73/94/55
f 80/90/56 94/89/56 73/94/56 27/95/56
f 18/96/57 67/97/57 95/98/57 79/99/57
f 67/97/58 17/100/58 60/101/58 95/98/58
f 95/102/59 60/103/59 20/104/59 63/105/59
f 79/106/60 95/107/60 63/108/60 25/109/60
f 1/22/61 49/25/61 96/110/61 61/111/61
f 49/25/62 9/29/62 68/112/62 96/110/62
f 96/110/63 68/112/63 24/113/63 75/114/63
f 61/111/64 96/110/64 75/114/64 18/96/64
f 19/91/65 64/115/65 97/116/65 57/92/65
f 64/115/66 20/117/66 65/118/66 97/116/66
f 97/116/67 65/118/67 22/119/67 69/120/67
f 57/92/68 97/116/68 69/120/68 23/93/68
f 28/87/69 78/121/69 98/122/69 58/88/69
f 78/123/70 25/109/70 63/108/70 98/124/70
f 98/122/71 63/125/71 20/117/71 64/115/71
f 58/88/72 98/122/72 64/115/72 19/91/72
f 27/95/73 77/126/73 99/127/73 59/128/73
f 77/126/74 26/129/74 62/130/74 99/127/74
f 99/131/75 62/132/75 10/48/75 42/47/75
f 59/128/76 99/127/76 42/45/76 7/44/76
f 26/133/77 76/134/77 100/135/77 62/132/77
f 76/134/78 24/136/78 68/137/78 100/135/78
f 100/138/79 68/112/79 9/29/79 43/139/79
f 62/132/80 100/135/80 43/54/80 10/48/80
f 18/96/81 75/114/81 101/140/81 67/97/81
f 75/114/82 24/113/82 66/141/82 101/140/82
f 101/140/83 66/141/83 21/142/83 71/143/83
f 67/97/84 101/140/84 71/143/84 17/100/84
f 20/104/85 60/103/85 102/144/85 65/145/85
f 60/101/86 17/100/86 71/143/86 102/146/86
f 102/144/87 71/147/87 21/148/87 70/149/87
f 65/145/88 102/144/88 70/149/88 22/150/88
f 22/150/89 70/149/89 103/151/89 72/152/89
f 70/149/90 21/148/90 66/153/90 103/151/90
f 103/151/91 66/153/91 24/136/91 76/134/91
f 72/152/92 103/151/92 76/134/92 26/133/92
f 23/93/93 69/120/93 104/154/93 73/94/93
f 69/120/94 22/119/94 72/155/94 104/154/94
f 104/154/95 72/155/95 26/129/95 77/126/95
f 73/94/96 104/154/96 77/126/96 27/95/96
f 18/96/97 79/99/97 105/156/97 61/111/97
f 79/106/98 25/109/98 78/123/98 105/157/98
f 105/157/99 78/123/99 28/158/99 74/159/99
f 61/160/100 105/157/100 74/159/100 1/161/100
f 1/83/101 74/162/101 106/163/101 50/84/101
f 74/162/102 28/87/102 80/90/102 106/163/102
f 106/163/103 80/90/103 27/95/103 59/128/103
f 50/84/104 106/163/104 59/128/104 7/44/104
